#!OML:ASF C:\Vicon Data\Big\jianyuan-13\jianyuan\Session 1\Capture.male.ASF
:FULLY-SPECIFIED
:DEGREES
181
root -6.888306 17.759000 -3.593659 8.669102 0.508407 3.600595
lowerback -10.289805 -0.079394 -3.092000 
upperback 1.267340 0.344379 -0.796505 
thorax 7.110930 0.062524 0.959034 
lowerneck -1.846198 -0.188987 2.849507 
upperneck -0.344676 -0.298942 -4.391776 
head 0.194203 -0.168204 -1.851303 
rclavicle 0.000000 0.000000 
rhumerus -45.192412 -12.532630 -81.893894 
rradius 33.694810 
rwrist 23.367384 
rhand -17.560600 -18.826099 
rfingers 0.000000 
rthumb 8.694364 -48.627089 
lclavicle 0.000000 0.000000 
lhumerus -24.830611 28.939221 82.440369 
lradius 27.914356 
lwrist -51.262079 
lhand -21.829259 1.231796 
lfingers 0.000000 
lthumb 4.573666 31.162430 
rfemur -53.559134 -12.996346 15.008261 
rtibia 99.362905 
rfoot -2.879554 -0.402149 
rtoes -36.896037 
lfemur -20.355786 -0.364972 -28.878946 
ltibia 28.805314 
lfoot -11.439767 0.208947 
ltoes -25.934808 
182
root -6.880691 17.762514 -3.523445 8.569244 0.587668 3.581181
lowerback -10.245858 -0.190300 -3.084742 
upperback 1.318132 0.193177 -0.770284 
thorax 7.145961 -0.012601 0.957871 
lowerneck -1.699598 -0.124873 2.862581 
upperneck -0.503555 -0.215337 -4.477390 
head 0.123344 -0.124220 -1.880102 
rclavicle 0.000000 0.000000 
rhumerus -45.301109 -12.626314 -81.763267 
rradius 33.459274 
rwrist 23.726072 
rhand -17.631688 -18.634831 
rfingers 0.000000 
rthumb 8.625797 -48.438601 
lclavicle 0.000000 0.000000 
lhumerus -24.009712 28.184474 83.064246 
lradius 28.301511 
lwrist -50.379377 
lhand -21.757024 1.236817 
lfingers 0.000000 
lthumb 4.643394 31.165962 
rfemur -54.602121 -13.087626 15.265155 
rtibia 99.352920 
rfoot -2.932797 -0.663947 
rtoes -37.209244 
lfemur -19.870014 -0.419383 -28.886568 
ltibia 28.587335 
lfoot -11.567451 0.235559 
ltoes -26.039506 
183
root -6.873002 17.769357 -3.452408 8.433535 0.654382 3.504823
lowerback -10.170571 -0.274776 -3.038418 
upperback 1.389739 0.069359 -0.713756 
thorax 7.184003 -0.073631 0.971070 
lowerneck -1.658274 -0.065627 2.861728 
upperneck -0.580744 -0.137719 -4.577326 
head 0.095495 -0.084782 -1.911740 
rclavicle 0.000000 0.000000 
rhumerus -45.470762 -12.557052 -81.722063 
rradius 33.473684 
rwrist 23.840656 
rhand -17.611200 -18.573782 
rfingers 0.000000 
rthumb 8.645568 -48.376781 
lclavicle 0.000000 0.000000 
lhumerus -23.170159 27.412324 83.729689 
lradius 28.690666 
lwrist -49.671266 
lhand -21.846444 1.395703 
lfingers 0.000000 
lthumb 4.557072 31.326664 
rfemur -55.529064 -13.098115 15.522038 
rtibia 99.290284 
rfoot -3.172821 -0.829375 
rtoes -36.871488 
lfemur -19.299796 -0.418048 -28.831845 
ltibia 28.323145 
lfoot -11.698638 0.218777 
ltoes -26.194208 
184
root -6.860629 17.777044 -3.384336 8.248117 0.860822 3.523771
lowerback -9.981381 -0.397242 -3.019799 
upperback 1.446085 -0.102760 -0.710565 
thorax 7.142664 -0.157064 0.936367 
lowerneck -1.566427 -0.025615 2.890689 
upperneck -0.665485 -0.085673 -4.627915 
head 0.055735 -0.057374 -1.932840 
rclavicle 0.000000 0.000000 
rhumerus -45.702670 -12.609759 -81.640396 
rradius 33.509267 
rwrist 23.670152 
rhand -17.567590 -18.495073 
rfingers 0.000000 
rthumb 8.687619 -48.296369 
lclavicle 0.000000 0.000000 
lhumerus -22.398412 26.226307 84.365108 
lradius 29.127670 
lwrist -48.521908 
lhand -21.875172 1.573039 
lfingers 0.000000 
lthumb 4.529286 31.504627 
rfemur -56.369643 -13.219482 15.643345 
rtibia 99.145353 
rfoot -3.415406 -0.974742 
rtoes -36.640701 
lfemur -18.684128 -0.617834 -28.869022 
ltibia 28.059084 
lfoot -11.806628 0.224870 
ltoes -25.923245 
185
root -6.851340 17.780670 -3.317284 8.106074 0.992295 3.582441
lowerback -9.834280 -0.500011 -3.068956 
upperback 1.491625 -0.237794 -0.721337 
thorax 7.112752 -0.224894 0.931471 
lowerneck -1.488538 0.009906 2.886259 
upperneck -0.735481 -0.038887 -4.637683 
head 0.022689 -0.032671 -1.934847 
rclavicle 0.000000 0.000000 
rhumerus -46.014504 -12.436384 -81.699526 
rradius 33.736695 
rwrist 23.273116 
rhand -17.709217 -18.527492 
rfingers 0.000000 
rthumb 8.550962 -48.334361 
lclavicle 0.000000 0.000000 
lhumerus -21.612641 25.276711 84.947539 
lradius 29.525892 
lwrist -47.466626 
lhand -21.869855 1.543110 
lfingers 0.000000 
lthumb 4.534444 31.474560 
rfemur -57.318128 -13.312175 15.760146 
rtibia 99.011960 
rfoot -3.682589 -1.108501 
rtoes -36.389191 
lfemur -18.092850 -0.922836 -28.941730 
ltibia 27.754386 
lfoot -11.989708 0.386105 
ltoes -25.628617 
186
root -6.840545 17.787177 -3.246031 8.062633 1.070021 3.601137
lowerback -9.859425 -0.640271 -3.066141 
upperback 1.486376 -0.428529 -0.662223 
thorax 7.129553 -0.319486 0.961673 
lowerneck -1.246013 0.095360 2.704126 
upperneck -0.839292 0.078600 -4.694152 
head -0.046000 0.029989 -1.919924 
rclavicle 0.000000 0.000000 
rhumerus -46.366826 -12.191598 -81.569613 
rradius 33.699861 
rwrist 23.793314 
rhand -17.993799 -18.380429 
rfingers 0.000000 
rthumb 8.276331 -48.198281 
lclavicle 0.000000 0.000000 
lhumerus -21.004699 24.740718 85.407817 
lradius 29.949778 
lwrist -46.835189 
lhand -21.823831 1.499417 
lfingers 0.000000 
lthumb 4.578841 31.429899 
rfemur -58.318810 -13.313281 15.957782 
rtibia 98.746697 
rfoot -3.815130 -1.334708 
rtoes -36.715229 
lfemur -17.599643 -1.166199 -28.981710 
ltibia 27.454657 
lfoot -12.195392 0.522382 
ltoes -25.843972 
187
root -6.834079 17.792716 -3.172337 7.858689 1.206253 3.572786
lowerback -9.710324 -0.736823 -3.096805 
upperback 1.569669 -0.561505 -0.607100 
thorax 7.139457 -0.387951 1.016461 
lowerneck -1.265940 0.142132 2.657309 
upperneck -0.851920 0.140746 -4.727972 
head -0.044089 0.061003 -1.922319 
rclavicle 0.000000 0.000000 
rhumerus -46.579826 -12.345467 -81.329383 
rradius 33.656061 
rwrist 23.941840 
rhand -17.781421 -18.314388 
rfingers 0.000000 
rthumb 8.481286 -48.124039 
lclavicle 0.000000 0.000000 
lhumerus -20.277970 23.702714 86.001476 
lradius 30.446564 
lwrist -45.837520 
lhand -21.880180 1.501683 
lfingers 0.000000 
lthumb 4.524480 31.433363 
rfemur -59.031863 -13.283725 16.157579 
rtibia 98.387055 
rfoot -4.099382 -1.666579 
rtoes -36.245323 
lfemur -16.949637 -1.212895 -28.959081 
ltibia 27.174684 
lfoot -12.261409 0.479463 
ltoes -26.088758 
188
root -6.827666 17.797648 -3.098057 7.805597 1.265098 3.556982
lowerback -9.718465 -0.730818 -3.112918 
upperback 1.644173 -0.546978 -0.642982 
thorax 7.222912 -0.382453 0.989295 
lowerneck -1.452785 0.115986 2.934930 
upperneck -0.807222 0.099919 -4.872728 
head 0.000284 0.037156 -2.019527 
rclavicle 0.000000 0.000000 
rhumerus -46.761764 -12.692009 -81.220541 
rradius 33.704123 
rwrist 23.865628 
rhand -17.631079 -18.161799 
rfingers 0.000000 
rthumb 8.626340 -47.965547 
lclavicle 0.000000 0.000000 
lhumerus -19.409119 22.683029 86.500255 
lradius 30.804840 
lwrist -45.081034 
lhand -21.930472 1.430514 
lfingers 0.000000 
lthumb 4.475888 31.363230 
rfemur -59.888957 -13.137261 16.324706 
rtibia 97.977478 
rfoot -4.456935 -1.874860 
rtoes -35.686487 
lfemur -16.444092 -1.146075 -28.959413 
ltibia 26.860558 
lfoot -12.301819 0.387163 
ltoes -26.403512 
189
root -6.819329 17.808465 -3.024765 7.637598 1.362542 3.479891
lowerback -9.601830 -0.774214 -3.042334 
upperback 1.693700 -0.619194 -0.613464 
thorax 7.211293 -0.415868 0.969983 
lowerneck -1.404473 0.131088 2.993353 
upperneck -0.831203 0.119178 -4.965736 
head -0.014390 0.047301 -2.060343 
rclavicle 0.000000 0.000000 
rhumerus -47.056119 -12.810599 -81.055426 
rradius 33.679766 
rwrist 24.062108 
rhand -17.683566 -18.066292 
rfingers 0.000000 
rthumb 8.575705 -47.872118 
lclavicle 0.000000 0.000000 
lhumerus -18.758017 21.752593 86.939025 
lradius 31.260938 
lwrist -44.126276 
lhand -21.890685 1.264011 
lfingers 0.000000 
lthumb 4.514342 31.195882 
rfemur -60.508192 -12.987869 16.514907 
rtibia 97.434884 
rfoot -4.652639 -2.363609 
rtoes -35.351067 
lfemur -15.801365 -1.304460 -28.882287 
ltibia 26.530218 
lfoot -12.416735 0.484153 
ltoes -26.639155 
190
root -6.815578 17.813689 -2.950744 7.420797 1.467054 3.494616
lowerback -9.439779 -0.923817 -3.149625 
upperback 1.716802 -0.817735 -0.528941 
thorax 7.154446 -0.518951 1.089785 
lowerneck -1.192485 0.221060 2.772972 
upperneck -0.898799 0.243645 -4.931198 
head -0.066555 0.113281 -2.009038 
rclavicle 0.000000 0.000000 
rhumerus -47.328408 -12.535697 -80.977818 
rradius 33.705536 
rwrist 23.888219 
rhand -17.639173 -18.201614 
rfingers 0.000000 
rthumb 8.618567 -48.005741 
lclavicle 0.000000 0.000000 
lhumerus -18.297806 21.015373 87.360828 
lradius 31.816944 
lwrist -43.184850 
lhand -21.960482 1.442334 
lfingers 0.000000 
lthumb 4.446940 31.375635 
rfemur -61.068141 -12.939209 16.713208 
rtibia 96.827763 
rfoot -4.828961 -2.783493 
rtoes -36.090774 
lfemur -15.089251 -1.397695 -28.902864 
ltibia 26.170840 
lfoot -12.495986 0.513360 
ltoes -26.886219 
191
root -6.808101 17.817957 -2.877353 7.196988 1.594574 3.505629
lowerback -9.254843 -1.049995 -3.191037 
upperback 1.750350 -0.992242 -0.467255 
thorax 7.093873 -0.607135 1.153079 
lowerneck -1.061780 0.294820 2.613334 
upperneck -0.924992 0.345234 -4.919923 
head -0.092986 0.166374 -1.976437 
rclavicle 0.000000 0.000000 
rhumerus -47.582131 -12.316554 -80.881747 
rradius 33.704446 
rwrist 23.695470 
rhand -17.621760 -18.240105 
rfingers 0.000000 
rthumb 8.635376 -48.043532 
lclavicle 0.000000 0.000000 
lhumerus -17.759316 20.349413 87.752829 
lradius 32.261847 
lwrist -42.291530 
lhand -22.020517 1.478736 
lfingers 0.000000 
lthumb 4.388927 31.413278 
rfemur -61.550123 -12.851114 16.753480 
rtibia 96.208612 
rfoot -5.089973 -3.111514 
rtoes -34.753348 
lfemur -14.349784 -1.591166 -28.927358 
ltibia 25.801001 
lfoot -12.634456 0.602429 
ltoes -27.166779 
192
root -6.805038 17.824360 -2.805925 7.027147 1.728861 3.563106
lowerback -9.093702 -1.135876 -3.299471 
upperback 1.781461 -1.099492 -0.475180 
thorax 7.041909 -0.663690 1.191389 
lowerneck -1.043303 0.317098 2.612040 
upperneck -0.902250 0.376162 -4.902190 
head -0.087855 0.181881 -1.970341 
rclavicle 0.000000 0.000000 
rhumerus -47.789857 -12.490364 -80.733359 
rradius 33.630621 
rwrist 23.670092 
rhand -17.530399 -18.260114 
rfingers 0.000000 
rthumb 8.723520 -48.059832 
lclavicle 0.000000 0.000000 
lhumerus -17.251117 19.354684 88.064994 
lradius 32.826419 
lwrist -41.391459 
lhand -22.127997 1.799290 
lfingers 0.000000 
lthumb 4.285139 31.735983 
rfemur -62.061018 -12.753869 16.818292 
rtibia 95.497155 
rfoot -5.306446 -3.352969 
rtoes -34.469640 
lfemur -13.684678 -1.778236 -28.985450 
ltibia 25.432132 
lfoot -12.703887 0.675207 
ltoes -27.485369 
193
root -6.800895 17.830652 -2.729683 6.848571 1.747539 3.544567
lowerback -9.006659 -1.178881 -3.320786 
upperback 1.843116 -1.158281 -0.452702 
thorax 7.061543 -0.694838 1.218714 
lowerneck -1.076536 0.344161 2.536587 
upperneck -0.883994 0.413399 -4.844287 
head -0.075365 0.200143 -1.937763 
rclavicle 0.000000 0.000000 
rhumerus -48.018662 -12.509093 -80.612866 
rradius 33.615199 
rwrist 23.857402 
rhand -17.465550 -18.313159 
rfingers 0.000000 
rthumb 8.786144 -48.110217 
lclavicle 0.000000 0.000000 
lhumerus -16.691118 18.412952 88.424809 
lradius 33.373358 
lwrist -40.264140 
lhand -21.900573 1.804103 
lfingers 0.000000 
lthumb 4.504804 31.736153 
rfemur -62.476818 -12.485535 16.917153 
rtibia 94.674687 
rfoot -5.484646 -3.551467 
rtoes -34.694442 
lfemur -12.998884 -1.784154 -28.979551 
ltibia 25.069930 
lfoot -12.802188 0.693407 
ltoes -27.880312 
